<svg xmlns="http://www.w3.org/2000/svg" version="1.1" xmlns:xlink="http://www.w3.org/1999/xlink" xmlns:svgjs="http://svgjs.dev/svgjs" viewBox="0 0 800 800" opacity="1"><defs><symbol id="bbburst-shape-3" viewBox="0 0 131 127"><path d="m66 0 66 63.5L66 127 0 63.5 66 0Z"></path></symbol><symbol id="bbburst-shape-11" viewBox="0 0 194 167"><path d="M10.398 161 97 11l86.603 150H10.397Z" stroke-width="11"></path></symbol><symbol id="bbburst-shape-13" viewBox="0 0 159 159"><path stroke-width="22" d="M11 11h137v137H11z"></path></symbol></defs><use xlink:href="#bbburst-shape-13" width="35.42441379775417" opacity="0.6719225609122443" transform="matrix(0.7435184701462729,0.6687153987694211,-0.6687153987694211,0.7435184701462729,529.6571519626045,11.653200602961533)" fill="none" stroke="#ffa6d5"></use><use xlink:href="#bbburst-shape-13" width="37.89066104286143" opacity="0.11566330612848807" transform="matrix(0.9058652836965949,0.4235659190648932,-0.4235659190648932,0.9058652836965949,741.0211741897497,-320.7081248492066)" fill="none" stroke="#2c2891"></use><use xlink:href="#bbburst-shape-13" width="41.36810156191784" opacity="0.46026794111055025" transform="matrix(0.7664489396514023,-0.6423052412266625,0.6423052412266625,0.7664489396514023,-58.24064438942165,263.5276006326215)" fill="none" stroke="#00a19d"></use><use xlink:href="#bbburst-shape-13" width="35.616805662322236" opacity="0.36954720565798505" transform="matrix(0.8341742690107228,-0.5515009419034805,0.5515009419034805,0.8341742690107228,436.41978938553535,157.21672786109082)" fill="none" stroke="#ffa6d5"></use><use xlink:href="#bbburst-shape-13" width="46.59395052842666" opacity="0.49614790472324066" transform="matrix(0.9500791210227233,0.31200907646523596,-0.31200907646523596,0.9500791210227233,554.8634569343848,-207.94471563509197)" fill="none" stroke="#fe0000"></use><use xlink:href="#bbburst-shape-13" width="38.25260863363438" opacity="0.6619020094044803" transform="matrix(0.9379686100703627,0.3467201847638408,-0.3467201847638408,0.9379686100703627,630.1250125069265,123.93806761245492)" fill="none" stroke="#ffa6d5"></use><use xlink:href="#bbburst-shape-13" width="21.60588211505743" opacity="0.8350880237558111" transform="matrix(0.7692829025269508,-0.6389083000554227,0.6389083000554227,0.7692829025269508,186.1834872661022,153.9743821072579)" fill="none" stroke="#fe0000"></use><use xlink:href="#bbburst-shape-13" width="37.11603570415199" opacity="0.36834192022484824" transform="matrix(0.8198443336156843,-0.5725864726294663,0.5725864726294663,0.8198443336156843,402.9452953099059,-57.63528815649386)" fill="none" stroke="#2c2891"></use><use xlink:href="#bbburst-shape-11" width="39.24677706147247" opacity="0.7206192832611931" transform="matrix(0.9992921259804384,0.0376197681212378,-0.0376197681212378,0.9992921259804384,414.6017203380718,123.29468031166118)" fill="none" stroke="#fe0000"></use><use xlink:href="#bbburst-shape-13" width="47.284238348677036" opacity="0.08194137535968116" transform="matrix(0.8328081976930366,0.5535616549719425,-0.5535616549719425,0.8328081976930366,384.150715450259,404.97356247630603)" fill="none" stroke="#00a19d"></use><use xlink:href="#bbburst-shape-13" width="55.309375176148876" opacity="-0.052783285642738376" transform="matrix(0.8720481291909952,-0.48942012665447804,0.48942012665447804,0.8720481291909952,-165.6490615921213,388.579880615253)" fill="none" stroke="#bccc9a"></use><use xlink:href="#bbburst-shape-13" width="37.95736867305021" opacity="0.4767379877470821" transform="matrix(0.9681215729835256,0.2504807775536958,-0.2504807775536958,0.9681215729835256,340.846364824165,-180.6077236094083)" fill="none" stroke="#bccc9a"></use><use xlink:href="#bbburst-shape-13" width="34.43753173722361" opacity="0.09106630057310905" transform="matrix(0.9337473912579843,0.35793268825144875,-0.35793268825144875,0.9337473912579843,878.5072670580934,-188.96331181887868)" fill="none" stroke="#ffa6d5"></use><use xlink:href="#bbburst-shape-3" width="36.69404908280726" opacity="0.2036112739866316" transform="matrix(0.9395099405270607,-0.34252163676305014,0.34252163676305014,0.9395099405270607,499.2437765285069,-222.66906385598347)" fill="#00a19d"></use><use xlink:href="#bbburst-shape-3" width="40.35643413538837" opacity="0.18471959925224435" transform="matrix(0.8285311269447151,0.5599430075317671,-0.5599430075317671,0.8285311269447151,695.7675678959301,413.2107293360325)" fill="#bccc9a"></use><use xlink:href="#bbburst-shape-13" width="39.79497998227242" opacity="0.4579819709731946" transform="matrix(0.8455558777431763,0.5338869333613314,-0.5338869333613314,0.8455558777431763,565.519411407809,-190.7483350477384)" fill="none" stroke="#ffa6d5"></use><use xlink:href="#bbburst-shape-3" width="54.25268845245629" opacity="0.2401071182998541" transform="matrix(0.9999746537219879,0.007119825390440548,-0.007119825390440548,0.9999746537219879,443.6187635019282,-335.2858525310768)" fill="#00a19d"></use><use xlink:href="#bbburst-shape-13" width="19.114161973430768" opacity="0.8488936562551126" transform="matrix(0.9466274620412493,-0.3223297195564553,0.3223297195564553,0.9466274620412493,329.96312668349606,21.674713868832953)" fill="none" stroke="#00a19d"></use><use xlink:href="#bbburst-shape-3" width="25.811603015397182" opacity="0.9632797467234205" transform="matrix(0.9157448600100163,0.40176031581682586,-0.40176031581682586,0.9157448600100163,533.9472491250426,35.72837503750935)" fill="#bccc9a"></use><use xlink:href="#bbburst-shape-3" width="42.581511821486885" opacity="-0.05515354253565796" transform="matrix(0.9751454033779957,0.2215658869744303,-0.2215658869744303,0.9751454033779957,810.337232546926,333.9090905497198)" fill="#2c2891"></use><use xlink:href="#bbburst-shape-3" width="29.09708219570162" opacity="0.4943042500787238" transform="matrix(0.9992175359199713,0.039551433729018176,-0.039551433729018176,0.9992175359199713,292.17357903869566,199.4935528644727)" fill="#2c2891"></use><use xlink:href="#bbburst-shape-13" width="43.21773860543087" opacity="0.3494956143895145" transform="matrix(0.7912423532113401,0.6115026888612846,-0.6115026888612846,0.7912423532113401,776.3553500303153,322.3449937697117)" fill="none" stroke="#ffa6d5"></use><use xlink:href="#bbburst-shape-3" width="36.51570298236136" opacity="0.12500570294686564" transform="matrix(0.8573781167470694,-0.5146870553290112,0.5146870553290112,0.8573781167470694,530.7767883934957,242.11275228519014)" fill="#fe0000"></use><use xlink:href="#bbburst-shape-13" width="36.93151704577962" opacity="0.6495155221649584" transform="matrix(0.9910366231931081,0.13359046182269707,-0.13359046182269707,0.9910366231931081,380.0275177024721,-146.65846768873146)" fill="none" stroke="#2c2891"></use><use xlink:href="#bbburst-shape-11" width="39.54259326904362" opacity="0.4706740968784954" transform="matrix(0.8441403130532841,0.5361223105582378,-0.5361223105582378,0.8441403130532841,791.7754516874438,189.88251541510175)" fill="none" stroke="#bccc9a"></use><use xlink:href="#bbburst-shape-11" width="54.17934085462018" opacity="-0.06121688662612801" transform="matrix(0.8799425130692801,0.4750801760685452,-0.4750801760685452,0.8799425130692801,899.7014168884155,-307.58120174268976)" fill="none" stroke="#00a19d"></use><use xlink:href="#bbburst-shape-3" width="55.00545853343587" opacity="0.2146688042818572" transform="matrix(0.8686961362739007,-0.4953453571224793,0.4953453571224793,0.8686961362739007,521.0463145069657,-17.80211505252788)" fill="#ffa6d5"></use><use xlink:href="#bbburst-shape-13" width="29.312774565158694" opacity="0.2013254383798566" transform="matrix(0.9446242646198323,0.32815392530250337,-0.32815392530250337,0.9446242646198323,473.8550172793077,-339.41307897879284)" fill="none" stroke="#ffa6d5"></use><use xlink:href="#bbburst-shape-3" width="35.52900830094898" opacity="0.09932957248305274" transform="matrix(0.9043753849663223,-0.4267378153703,0.4267378153703,0.9043753849663223,11.880374054550146,-305.9260839221927)" fill="#bccc9a"></use><use xlink:href="#bbburst-shape-11" width="35.45458571153643" opacity="0.3583615937533917" transform="matrix(0.8232154588553935,-0.5677290800210113,0.5677290800210113,0.8232154588553935,185.4808171411572,367.8338602367673)" fill="none" stroke="#fe0000"></use><use xlink:href="#bbburst-shape-11" width="42.525404682994264" opacity="0.09901638865563478" transform="matrix(0.8284262522960049,0.5600981561358652,-0.5600981561358652,0.8284262522960049,253.71206992585766,-143.13507642273726)" fill="none" stroke="#ffa6d5"></use><use xlink:href="#bbburst-shape-13" width="31.66649918667277" opacity="0.6440025050650025" transform="matrix(0.9798306448377028,0.19982969608376944,-0.19982969608376944,0.9798306448377028,621.1767400589526,37.92451104614514)" fill="none" stroke="#bccc9a"></use><use xlink:href="#bbburst-shape-11" width="35.827282121478675" opacity="0.4975012158346547" transform="matrix(0.9933163694349572,0.1154235253860998,-0.1154235253860998,0.9933163694349572,225.46136222545704,-99.53478121153915)" fill="none" stroke="#2c2891"></use><use xlink:href="#bbburst-shape-13" width="37.06665046857735" opacity="0.544650914782977" transform="matrix(0.8009110028423454,0.5987834045179179,-0.5987834045179179,0.8009110028423454,705.6032259675227,256.7845040297467)" fill="none" stroke="#fe0000"></use><use xlink:href="#bbburst-shape-13" width="43.879108100478575" opacity="-0.053038394627205054" transform="matrix(0.997483192988948,0.07090331236672252,-0.07090331236672252,0.997483192988948,71.41495865644774,-335.6363619974278)" fill="none" stroke="#ffa6d5"></use><use xlink:href="#bbburst-shape-11" width="45.62927815291143" opacity="0.30010167649810204" transform="matrix(0.9103807549643783,-0.41377153235872655,0.41377153235872655,0.9103807549643783,-79.52649477231776,-70.76598099365896)" fill="none" stroke="#fe0000"></use><use xlink:href="#bbburst-shape-13" width="32.36514256095066" opacity="0.5769525273575458" transform="matrix(0.9659649379310017,0.25867303432703626,-0.25867303432703626,0.9659649379310017,298.00151900136683,23.696166237206285)" fill="none" stroke="#ffa6d5"></use><use xlink:href="#bbburst-shape-11" width="30.240288498685096" opacity="0.5071680656310115" transform="matrix(0.9996460158975913,0.026605317139110768,-0.026605317139110768,0.9996460158975913,373.65908304941735,220.04230187634562)" fill="none" stroke="#2c2891"></use><use xlink:href="#bbburst-shape-13" width="40.89980686299118" opacity="0.3740931840210421" transform="matrix(0.9476531513665223,-0.3193015889485975,0.3193015889485975,0.9476531513665223,-28.67402238960993,34.35053580161775)" fill="none" stroke="#ffa6d5"></use><use xlink:href="#bbburst-shape-13" width="50.58897529293378" opacity="0.09159448673464332" transform="matrix(0.7259783604512929,-0.6877175438771739,0.6877175438771739,0.7259783604512929,324.99137819744317,472.52744080398077)" fill="none" stroke="#fe0000"></use><use xlink:href="#bbburst-shape-3" width="29.582688479748562" opacity="0.7767058443951292" transform="matrix(0.7281658343675703,0.6854009904134806,-0.6854009904134806,0.7281658343675703,562.8396705243288,100.22044377444956)" fill="#2c2891"></use><use xlink:href="#bbburst-shape-11" width="27.945594566535775" opacity="0.6668158446862917" transform="matrix(0.9680925090005243,0.2505930845356064,-0.2505930845356064,0.9680925090005243,426.9412371376616,146.37824678546446)" fill="none" stroke="#00a19d"></use><use xlink:href="#bbburst-shape-11" width="48.88314938825844" opacity="0.14138321562642586" transform="matrix(0.9807863808747971,-0.19508478949040992,0.19508478949040992,0.9807863808747971,-59.02525139480196,159.8644903247208)" fill="none" stroke="#fe0000"></use><use xlink:href="#bbburst-shape-3" width="26.9443117758858" opacity="0.8226434358047203" transform="matrix(0.9224685879318668,-0.3860721490589393,0.3860721490589393,0.9224685879318668,185.60258840397526,-27.922680331947504)" fill="#2c2891"></use><use xlink:href="#bbburst-shape-13" width="25.22452106788614" opacity="0.5846752948981566" transform="matrix(0.724251977653577,-0.68953540363413,0.68953540363413,0.724251977653577,224.4213140701812,-32.557417607894024)" fill="none" stroke="#2c2891"></use><use xlink:href="#bbburst-shape-13" width="25.013867094452586" opacity="0.8253487333866864" transform="matrix(0.8211145033835794,0.570763499475166,-0.570763499475166,0.8211145033835794,573.8776171227748,129.43052418619487)" fill="none" stroke="#00a19d"></use><use xlink:href="#bbburst-shape-11" width="33.75339890053248" opacity="0.2010228236007442" transform="matrix(0.8445740321058582,0.535438796028503,-0.535438796028503,0.8445740321058582,537.4023549488045,406.7876986226292)" fill="none" stroke="#bccc9a"></use><use xlink:href="#bbburst-shape-11" width="39.80808423289156" opacity="0.23318362482146326" transform="matrix(0.9673989559901889,-0.25325729989299917,0.25325729989299917,0.9673989559901889,539.5585595776132,244.17542490464922)" fill="none" stroke="#00a19d"></use><use xlink:href="#bbburst-shape-13" width="51.93517852561584" opacity="0.2532862578940287" transform="matrix(0.9812772381330729,-0.19260057612044829,0.19260057612044829,0.9812772381330729,58.541543773607515,-223.77089258781405)" fill="none" stroke="#bccc9a"></use><use xlink:href="#bbburst-shape-3" width="34.848077024861084" opacity="0.6542858385195489" transform="matrix(0.9697100618100858,-0.2442588709223877,0.2442588709223877,0.9697100618100858,154.32756567367707,100.40573893371175)" fill="#2c2891"></use><use xlink:href="#bbburst-shape-13" width="32.758907209616666" opacity="0.7134413923379763" transform="matrix(0.9995462701680313,0.03012065393010231,-0.03012065393010231,0.9995462701680313,424.17041650753214,-126.07568926482116)" fill="none" stroke="#fe0000"></use><use xlink:href="#bbburst-shape-3" width="45.92199519926709" opacity="0.47224839557806075" transform="matrix(0.9944614626655635,0.10510185190123025,-0.10510185190123025,0.9944614626655635,655.4220268810878,-23.035058561328526)" fill="#fe0000"></use><use xlink:href="#bbburst-shape-13" width="26.5738578871894" opacity="0.5606429957665007" transform="matrix(0.9235238622739244,0.3835409701852641,-0.3835409701852641,0.9235238622739244,711.4986768353215,-74.85164450119316)" fill="none" stroke="#00a19d"></use><use xlink:href="#bbburst-shape-13" width="38.38391218865512" opacity="0.30513552588982107" transform="matrix(0.9352011800448812,0.35411686325655517,-0.35411686325655517,0.9352011800448812,384.08308728725444,298.9125061540831)" fill="none" stroke="#ffa6d5"></use><use xlink:href="#bbburst-shape-13" width="24.776066307897725" opacity="0.867854414821706" transform="matrix(0.7537751392002023,-0.6571324368220729,0.6571324368220729,0.7537751392002023,150.8923552890805,51.828014382784204)" fill="none" stroke="#ffa6d5"></use><use xlink:href="#bbburst-shape-11" width="41.51648797588537" opacity="0.19106441220635662" transform="matrix(0.9083905105160035,0.4181228054106528,-0.4181228054106528,0.9083905105160035,185.41981818173804,2.990134244832518)" fill="none" stroke="#00a19d"></use><use xlink:href="#bbburst-shape-11" width="45.48006972077687" opacity="0.3674468650986701" transform="matrix(0.8912884862695145,-0.45343669265223513,0.45343669265223513,0.8912884862695145,-66.59415058624487,157.99419054079124)" fill="none" stroke="#fe0000"></use><use xlink:href="#bbburst-shape-13" width="43.94816605871486" opacity="0.21516696211462938" transform="matrix(0.9769625909815762,0.21341062724842286,-0.21341062724842286,0.9769625909815762,198.69213424865075,237.7618099426665)" fill="none" stroke="#fe0000"></use><use xlink:href="#bbburst-shape-13" width="26.250716804290285" opacity="0.7269071560374607" transform="matrix(0.8344065729676481,-0.5511494089522231,0.5511494089522231,0.8344065729676481,279.13273002990803,19.784052151859157)" fill="none" stroke="#bccc9a"></use><use xlink:href="#bbburst-shape-3" width="50.488720248780695" opacity="0.3005209454230029" transform="matrix(0.9999661056904884,-0.008233314654437308,0.008233314654437308,0.9999661056904884,253.25970135565277,-291.5831502046745)" fill="#2c2891"></use><use xlink:href="#bbburst-shape-11" width="48.49149472318299" opacity="0.3727776623481539" transform="matrix(0.984533543596099,0.17519618013560764,-0.17519618013560764,0.984533543596099,599.5431297977874,-235.71418027432452)" fill="none" stroke="#bccc9a"></use><use xlink:href="#bbburst-shape-13" width="35.65339282876559" opacity="0.20945710988281352" transform="matrix(0.9578821255072938,-0.287161685525122,0.287161685525122,0.9578821255072938,622.274942350791,54.91156539893166)" fill="none" stroke="#fe0000"></use></svg>